<svg width="154" height="50" viewBox="0 0 154 50" fill="none" xmlns="http://www.w3.org/2000/svg">
<path d="M147.462 19.0386H153.193L143.539 46.154H138.654L141.154 38.4232L133.654 19.0386H139.347L143.577 31.0001L147.462 19.0386Z" fill="#20282D"/>
<path d="M125.947 9.61548H131.293V38.4616H126.408L126.216 36.0386C125.024 37.8463 123.139 38.9616 120.908 38.9616C116.447 38.9616 112.793 34.7309 112.793 28.6924C112.793 22.6924 116.447 18.5386 121.024 18.5386C123.101 18.5386 124.793 19.3847 125.947 20.8078V9.61548ZM122.255 34.0001C124.601 34.0001 126.331 31.9616 126.331 28.7309C126.331 25.577 124.639 23.4616 122.255 23.4616C119.831 23.4616 118.255 25.577 118.255 28.7309C118.255 31.8847 119.831 34.0001 122.255 34.0001Z" fill="#20282D"/>
<path d="M101.923 18.5386C107.077 18.5386 109.654 21.2693 109.654 26.8847V38.4617H104.808L104.577 35.9232C103.269 37.9617 101 38.9617 98.8848 38.9617C95.8463 38.9617 92.8848 36.8847 92.8848 32.8847C92.8848 28.5001 96.5386 26.7693 99.9617 26.7693C101.308 26.7693 102.885 27.0001 104.346 27.4617V27.077C104.346 24.4232 103.192 23.1924 100.731 23.1924C99.0771 23.1924 97.3848 23.7693 95.9232 25.0001L93.9617 21.2309C95.8078 19.7309 98.4617 18.5386 101.923 18.5386ZM100.5 34.7309C102.346 34.7309 104.346 33.2309 104.346 30.8078C103.231 30.3847 102 30.1924 101.039 30.1924C99.4232 30.1924 98.2309 30.8847 98.2309 32.5386C98.2309 33.9617 99.154 34.7309 100.5 34.7309Z" fill="#20282D"/>
<path d="M89.3048 11.5386V38.4617H83.7664V19.654L78.8048 35.5386H72.6895L67.7279 19.654V38.4617H62.1895V11.5386H70.3433L75.7664 29.3847L81.151 11.5386H89.3048Z" fill="#20282D"/>
<path d="M1.92383 12.5C1.92383 5.59644 7.52027 0 14.4238 0H37.5008C44.4043 0 50.0008 5.59644 50.0008 12.5V35.5769C50.0008 42.4805 44.4043 48.0769 37.5008 48.0769H1.92383V12.5Z" fill="#FF7162"/>
<path d="M36.5385 11.5385C37.6006 11.5385 38.4616 12.3994 38.4616 13.4615V48.0769C38.4616 49.139 37.6006 50 36.5385 50H32.5286C31.4666 50 30.6056 49.139 30.6056 48.0769V35.8248C30.6056 33.6199 27.4988 33.1493 26.8457 35.2552L23.9877 44.4707C23.7381 45.2756 22.9936 45.8242 22.1509 45.8242H16.3106C15.468 45.8242 14.7235 45.2756 14.4739 44.4707L11.6158 35.2552C10.9627 33.1493 7.85598 33.6199 7.85598 35.8248V48.0769C7.85598 49.139 6.99499 50 5.9329 50H1.92308C0.860991 50 0 49.139 0 48.0769V13.4615C0 12.3994 0.860991 11.5385 1.92308 11.5385H10.1373C10.9854 11.5385 11.7334 12.0941 11.9784 12.906L17.4104 30.9093C17.9611 32.7346 20.5465 32.7321 21.0937 30.9057L26.485 12.9096C26.7288 12.0959 27.4777 11.5385 28.3272 11.5385H36.5385Z" fill="white"/>
</svg>
