<svg width="200" height="65" viewBox="0 0 200 65" fill="none" xmlns="http://www.w3.org/2000/svg">
<path d="M191.704 21.25H199.154L186.604 56.5H180.254L183.504 46.45L173.754 21.25H181.154L186.654 36.8L191.704 21.25Z" fill="#20282D"/>
<path d="M163.735 9H170.685V46.5H164.335L164.085 43.35C162.535 45.7 160.085 47.15 157.185 47.15C151.385 47.15 146.635 41.65 146.635 33.8C146.635 26 151.385 20.6 157.335 20.6C160.035 20.6 162.235 21.7 163.735 23.55V9ZM158.935 40.7C161.985 40.7 164.235 38.05 164.235 33.85C164.235 29.75 162.035 27 158.935 27C155.785 27 153.735 29.75 153.735 33.85C153.735 37.95 155.785 40.7 158.935 40.7Z" fill="#20282D"/>
<path d="M132.504 20.6001C139.204 20.6001 142.554 24.1501 142.554 31.4501V46.5001H136.254L135.954 43.2001C134.254 45.8501 131.304 47.1501 128.554 47.1501C124.604 47.1501 120.754 44.4501 120.754 39.2501C120.754 33.5501 125.504 31.3001 129.954 31.3001C131.704 31.3001 133.754 31.6001 135.654 32.2001V31.7001C135.654 28.2501 134.154 26.6501 130.954 26.6501C128.804 26.6501 126.604 27.4001 124.704 29.0001L122.154 24.1001C124.554 22.1501 128.004 20.6001 132.504 20.6001ZM130.654 41.6501C133.054 41.6501 135.654 39.7001 135.654 36.5501C134.204 36.0001 132.604 35.7501 131.354 35.7501C129.254 35.7501 127.704 36.6501 127.704 38.8001C127.704 40.6501 128.904 41.6501 130.654 41.6501Z" fill="#20282D"/>
<path d="M116.1 11.5V46.5H108.9V22.05L102.45 42.7H94.4996L88.0496 22.05V46.5H80.8496V11.5H91.4496L98.4996 34.7L105.5 11.5H116.1Z" fill="#20282D"/>
<path d="M2.5 16.25C2.5 7.27537 9.77537 0 18.75 0H48.75C57.7246 0 65 7.27537 65 16.25V46.25C65 55.2246 57.7246 62.5 48.75 62.5H2.5V16.25Z" fill="#4CAF50"/>
<path d="M47.5 15C48.8807 15 50 16.1193 50 17.5V62.5C50 63.8807 48.8807 65 47.5 65H42.2872C40.9065 65 39.7872 63.8807 39.7872 62.5V46.5723C39.7872 43.7059 35.7485 43.094 34.8994 45.8318L31.184 57.812C30.8595 58.8583 29.8916 59.5714 28.7962 59.5714H21.2038C20.1084 59.5714 19.1405 58.8583 18.816 57.812L15.1006 45.8317C14.2515 43.094 10.2128 43.7059 10.2128 46.5723V62.5C10.2128 63.8807 9.09348 65 7.71277 65H2.5C1.11929 65 0 63.8807 0 62.5V17.5C0 16.1193 1.11929 15 2.5 15H13.1785C14.281 15 15.2534 15.7223 15.5719 16.7778L22.6335 40.1821C23.3495 42.555 26.7105 42.5517 27.4218 40.1774L34.4305 16.7825C34.7475 15.7246 35.721 15 36.8254 15H47.5Z" fill="white"/>
</svg>
