<svg width="200" height="65" viewBox="0 0 200 65" fill="none" xmlns="http://www.w3.org/2000/svg">
<path d="M191.704 24.75H199.154L186.604 60H180.254L183.504 49.95L173.754 24.75H181.154L186.654 40.3L191.704 24.75Z" fill="black"/>
<path d="M163.735 12.5H170.685V50H164.335L164.085 46.85C162.535 49.2 160.085 50.65 157.185 50.65C151.385 50.65 146.635 45.15 146.635 37.3C146.635 29.5 151.385 24.1 157.335 24.1C160.035 24.1 162.235 25.2 163.735 27.05V12.5ZM158.935 44.2C161.985 44.2 164.235 41.55 164.235 37.35C164.235 33.25 162.035 30.5 158.935 30.5C155.785 30.5 153.735 33.25 153.735 37.35C153.735 41.45 155.785 44.2 158.935 44.2Z" fill="black"/>
<path d="M132.504 24.1C139.204 24.1 142.554 27.65 142.554 34.95V50H136.254L135.954 46.7C134.254 49.35 131.304 50.65 128.554 50.65C124.604 50.65 120.754 47.95 120.754 42.75C120.754 37.05 125.504 34.8 129.954 34.8C131.704 34.8 133.754 35.1 135.654 35.7V35.2C135.654 31.75 134.154 30.15 130.954 30.15C128.804 30.15 126.604 30.9 124.704 32.5L122.154 27.6C124.554 25.65 128.004 24.1 132.504 24.1ZM130.654 45.15C133.054 45.15 135.654 43.2 135.654 40.05C134.204 39.5 132.604 39.25 131.354 39.25C129.254 39.25 127.704 40.15 127.704 42.3C127.704 44.15 128.904 45.15 130.654 45.15Z" fill="black"/>
<path d="M116.1 15V50H108.9V25.55L102.45 46.2H94.4996L88.0496 25.55V50H80.8496V15H91.4496L98.4996 38.2L105.5 15H116.1Z" fill="black"/>
<path d="M2.5 16.25C2.5 7.27537 9.77537 0 18.75 0H48.75C57.7246 0 65 7.27537 65 16.25V46.25C65 55.2246 57.7246 62.5 48.75 62.5H2.5V16.25Z" fill="#0148FF"/>
<path d="M47.5 15C48.8807 15 50 16.1193 50 17.5V62.5C50 63.8807 48.8807 65 47.5 65H42.2872C40.9065 65 39.7872 63.8807 39.7872 62.5V46.5723C39.7872 43.7059 35.7485 43.094 34.8994 45.8318L31.184 57.812C30.8595 58.8583 29.8916 59.5714 28.7962 59.5714H21.2038C20.1084 59.5714 19.1405 58.8583 18.816 57.812L15.1006 45.8317C14.2515 43.094 10.2128 43.7059 10.2128 46.5723V62.5C10.2128 63.8807 9.09348 65 7.71277 65H2.5C1.11929 65 0 63.8807 0 62.5V17.5C0 16.1193 1.11929 15 2.5 15H13.1785C14.281 15 15.2534 15.7223 15.5719 16.7778L22.6335 40.1821C23.3495 42.555 26.7105 42.5517 27.4218 40.1774L34.4305 16.7825C34.7475 15.7246 35.721 15 36.8254 15H47.5Z" fill="white"/>
</svg>
