<svg width="200" height="65" viewBox="0 0 200 65" fill="none" xmlns="http://www.w3.org/2000/svg">
<path d="M191.704 24.75H199.154L186.604 60H180.254L183.504 49.95L173.754 24.75H181.154L186.654 40.3L191.704 24.75Z" fill="#20282D"/>
<path d="M163.734 12.5H170.684V50H164.334L164.084 46.85C162.534 49.2 160.084 50.65 157.184 50.65C151.384 50.65 146.634 45.15 146.634 37.3C146.634 29.5 151.384 24.1 157.334 24.1C160.034 24.1 162.234 25.2 163.734 27.05V12.5ZM158.934 44.2C161.984 44.2 164.234 41.55 164.234 37.35C164.234 33.25 162.034 30.5 158.934 30.5C155.784 30.5 153.734 33.25 153.734 37.35C153.734 41.45 155.784 44.2 158.934 44.2Z" fill="#20282D"/>
<path d="M132.505 24.1C139.205 24.1 142.555 27.65 142.555 34.95V50H136.255L135.955 46.7C134.255 49.35 131.305 50.65 128.555 50.65C124.605 50.65 120.755 47.95 120.755 42.75C120.755 37.05 125.505 34.8 129.955 34.8C131.705 34.8 133.755 35.1 135.655 35.7V35.2C135.655 31.75 134.155 30.15 130.955 30.15C128.805 30.15 126.605 30.9 124.705 32.5L122.155 27.6C124.555 25.65 128.005 24.1 132.505 24.1ZM130.655 45.15C133.055 45.15 135.655 43.2 135.655 40.05C134.205 39.5 132.605 39.25 131.355 39.25C129.255 39.25 127.705 40.15 127.705 42.3C127.705 44.15 128.905 45.15 130.655 45.15Z" fill="#20282D"/>
<path d="M116.1 15V50H108.9V25.55L102.45 46.2H94.4996L88.0496 25.55V50H80.8496V15H91.4496L98.4996 38.2L105.5 15H116.1Z" fill="#20282D"/>
<path d="M2.49951 16.25C2.49951 7.27537 9.77489 0 18.7495 0H48.7495C57.7241 0 64.9995 7.27537 64.9995 16.25V46.25C64.9995 55.2246 57.7241 62.5 48.7495 62.5H2.49951V16.25Z" fill="#F73A3A"/>
<path d="M47.5 15C48.8807 15 50 16.1193 50 17.5V62.5C50 63.8807 48.8807 65 47.5 65H42.2872C40.9065 65 39.7872 63.8807 39.7872 62.5V46.5723C39.7872 43.7059 35.7485 43.094 34.8994 45.8317L31.184 57.8119C30.8595 58.8582 29.8916 59.5714 28.7962 59.5714H21.2038C20.1084 59.5714 19.1405 58.8582 18.816 57.8119L15.1006 45.8317C14.2515 43.094 10.2128 43.7059 10.2128 46.5723V62.5C10.2128 63.8807 9.09348 65 7.71277 65H2.5C1.11929 65 0 63.8807 0 62.5V17.5C0 16.1193 1.11929 15 2.5 15H13.1785C14.281 15 15.2534 15.7223 15.5719 16.7778L22.6335 40.1821C23.3495 42.555 26.7105 42.5517 27.4218 40.1774L34.4305 16.7825C34.7475 15.7246 35.721 15 36.8254 15H47.5Z" fill="white"/>
</svg>
